<svg xmlns:xlink="http://www.w3.org/1999/xlink" xmlns="http://www.w3.org/2000/svg" width="17" height="17" viewBox="0 0 17 17" fill="none" role="img" aria-labelledby="ad9893na863x4r7iw80quw9gdaqapqhb" class="blog-feeds-cta__rss-icon"><title id="ad9893na863x4r7iw80quw9gdaqapqhb" fill="#FFE7A3">RSS feed</title>
<path d="M1.06889 5.71207C0.793894 5.70007 0.566895 5.92407 0.566895 6.20107V8.25407C0.566895 8.53007 0.793894 8.75307 1.06889 8.77207C2.87589 8.89307 4.56889 9.65807 5.86089 10.9541C7.15589 12.2451 7.91889 13.9451 8.03989 15.7641C8.05789 16.0381 8.28089 16.2681 8.55689 16.2681H10.6239C10.8999 16.2681 11.1239 16.0381 11.1109 15.7621C10.9809 13.0511 9.82789 10.6041 8.02389 8.79907C6.22489 6.99707 3.77989 5.83907 1.06889 5.71207Z" fill="#FFE7A3"></path>
<path d="M2.56589 12.2441C2.01289 12.2441 1.51889 12.4541 1.15389 12.8181C0.792895 13.1781 0.566895 13.6481 0.566895 14.1981C0.566895 14.7471 0.792895 15.1911 1.15389 15.5521C1.51889 15.9151 2.01289 16.0451 2.56589 16.0451C3.11989 16.0451 3.61689 16.2681 3.97889 15.2681H3.98089C4.34389 15.2681 4.56589 14.6041 4.56689 14.0551C4.56589 13.5061 4.34389 13.1001 3.97889 12.7401C3.61389 12.3751 3.11989 12.2441 2.56589 12.2441Z" fill="#FFE7A3"></path>
<path d="M11.8729 4.95508C9.08489 2.16408 5.28189 0.401083 1.07289 0.268083C0.795895 0.259083 0.566895 0.484083 0.566895 0.760083V2.81408C0.566895 3.09008 0.795895 3.31308 1.07289 3.32408C7.80189 3.58508 13.2349 9.02408 13.4929 15.7621C13.5039 16.0381 13.7259 16.2681 14.0029 16.2681H16.0669C16.3429 16.2681 16.5669 16.0381 16.5579 15.7621C16.4259 11.5511 14.6599 7.74108 11.8729 4.95508Z" fill="#FFE7A3"></path>
</svg>